<?xml version="1.0" encoding="iso-8859-1"?>
<!-- Generator: Adobe Illustrator 19.0.0, SVG Export Plug-In . SVG Version: 6.00 Build 0)  -->
<svg version="1.1" id="Capa_1" xmlns="http://www.w3.org/2000/svg" xmlns:xlink="http://www.w3.org/1999/xlink" x="0px" y="0px"
	 viewBox="0 0 512 512" style="enable-background:new 0 0 512 512;" xml:space="preserve">
<g>
	<g>
		<path d="M497.229,310.14c-0.708,0.292-1.417,0.594-2.167,0.927c2.021-4.125,3.813-8.125,5.396-11.813
			C508.125,281.483,512,259.742,512,234.658c0-20.99-2.604-42.054-7.75-62.596c-1.271-4.948-6.083-8.469-10.938-8.052
			c-5.104,0.281-9.292,4.146-9.979,9.219c-5.313,39.137-14.833,63.856-24.063,79.346c19.938-73.002,19.125-123.796-1.938-161.776
			c-12.458-22.449-33.854-52.002-56.604-67.606c-3.854-2.615-8.917-2.458-12.583,0.385c-3.667,2.854-5.063,7.771-3.458,12.125
			c1.208,3.261,28.583,80.742-40.708,159.932c-3.667,4.177-3.458,10.532,0.417,14.511c0.292,0.302,28.938,30.543,28.938,99.18
			c0,59.068-52.771,103.929-97.604,114.772c-1.125-11.052-2.753-31.603-4.322-67.761l18.926,23.658c2.104,2.625,5.208,4,8.333,4
			c2.333,0,4.688-0.76,6.667-2.333c4.604-3.688,5.333-10.396,1.667-15.001l-25.682-32.105c17.858-3.027,39.672-3.896,49.37-3.896
			c5.896-0.01,10.667-4.781,10.667-10.667c0-5.552-4.25-10.115-9.667-10.625h-0.021c-0.021,0-0.042,0-0.063,0c0,0,0,0-0.021,0
			c0-0.01,0-0.01,0-0.01c-0.083,0-0.125,0-0.125,0h-0.021c-0.021-0.01-0.042-0.01-0.063-0.01c0-0.021-0.125-0.01-0.208-0.01
			c-0.125,0-0.208-0.01-0.292-0.01c-9.977,0.121-31.763-0.775-49.596-3.849L307,273.326c3.667-4.604,2.938-11.313-1.667-15
			c-4.604-3.656-11.292-2.938-15,1.667l-21.234,26.544c-1.608-63.946-2.432-142.192-2.432-233.217
			c0-5.896-4.771-10.667-10.667-10.667s-10.667,4.771-10.667,10.667c0,91.021-0.823,169.27-2.432,233.217l-21.234-26.544
			c-3.646-4.573-10.354-5.344-15-1.667c-4.604,3.688-5.333,10.396-1.667,15l25.682,32.105c-17.858,3.027-39.672,3.896-49.37,3.896
			c-5.896,0.01-10.667,4.781-10.667,10.667c0,5.552,4.25,10.115,9.667,10.625h0.021c0.021,0,0.042,0,0.063,0c0,0,0,0,0.021,0v0.01
			c0.083,0,0.125,0,0.125,0h0.021c0.021,0.01,0.042,0.01,0.063,0.01c0,0.021,0.125,0.01,0.208,0.01c0.083-0.01,0.167,0,0.292,0.01
			c9.901,0.107,31.694,0.913,49.548,3.909L205,366.662c-3.667,4.604-2.938,11.313,1.667,15.001c1.979,1.573,4.313,2.333,6.667,2.333
			c3.125,0,6.229-1.375,8.333-4l18.927-23.66c-1.569,36.163-3.198,56.71-4.323,67.763c-44.833-10.843-97.604-55.704-97.604-114.772
			c0-68.638,28.646-98.878,28.875-99.128c3.979-3.969,4.188-10.344,0.479-14.563c-69.292-79.19-41.917-156.672-40.708-159.932
			c1.604-4.354,0.208-9.271-3.458-12.125c-3.646-2.844-8.729-3-12.583-0.385C88.521,38.797,67.125,68.35,54.667,90.799
			c-21.062,37.97-21.875,88.753-1.958,161.714c-9.229-15.49-18.75-40.199-24.042-79.284c-0.688-5.073-4.875-8.938-9.979-9.219
			c-4.875-0.167-9.667,3.115-10.938,8.052C2.604,192.605,0,213.668,0,234.658c0,25.084,3.875,46.824,11.542,64.606
			c1.583,3.688,3.396,7.688,5.396,11.813c-0.75-0.333-1.479-0.646-2.188-0.938c-3.875-1.594-8.458-0.771-11.5,2.198
			c-3.063,2.958-4.063,7.459-2.563,11.438C36.792,418.925,146.542,490.667,256,490.667c109.417,0,219.167-71.742,255.292-166.891
			c1.5-3.979,0.5-8.469-2.563-11.438C505.688,309.39,501.167,308.525,497.229,310.14z"/>
	</g>
</g>
<g>
</g>
<g>
</g>
<g>
</g>
<g>
</g>
<g>
</g>
<g>
</g>
<g>
</g>
<g>
</g>
<g>
</g>
<g>
</g>
<g>
</g>
<g>
</g>
<g>
</g>
<g>
</g>
<g>
</g>
</svg>
