<?xml version="1.0" encoding="iso-8859-1"?>
<!-- Generator: Adobe Illustrator 19.0.0, SVG Export Plug-In . SVG Version: 6.00 Build 0)  -->
<svg version="1.1" id="Capa_1" xmlns="http://www.w3.org/2000/svg" xmlns:xlink="http://www.w3.org/1999/xlink" x="0px" y="0px"
	 viewBox="0 0 469.333 469.333" style="enable-background:new 0 0 469.333 469.333;" xml:space="preserve">
<g>
	<g>
		<g>
			<path d="M463.25,109.995L379,69.87c-5.292-2.49-11.688-0.281-14.208,5.052c-2.542,5.313-0.271,11.677,5.042,14.219L448,126.37
				v110.594c0,5.896,4.771,10.667,10.667,10.667c5.896,0,10.667-4.771,10.667-10.667V119.63
				C469.333,115.516,466.958,111.766,463.25,109.995z"/>
			<path d="M10.667,247.63c5.896,0,10.667-4.771,10.667-10.667V126.37l80.563-38.354c5.313-2.542,7.583-8.906,5.042-14.219
				c-2.521-5.333-8.958-7.552-14.208-5.052l-86.646,41.25C2.375,111.766,0,115.516,0,119.63v117.333
				C0,242.859,4.771,247.63,10.667,247.63z"/>
			<path d="M143.25,68.307l91.417-43.531l92.042,43.833c1.479,0.698,3.042,1.031,4.583,1.031c3.979,0,7.813-2.24,9.625-6.083
				c2.542-5.313,0.271-11.677-5.042-14.219L239.25,3.328c-2.917-1.375-6.25-1.375-9.167,0l-96,45.708
				c-5.313,2.542-7.583,8.906-5.042,14.219C131.542,68.578,137.937,70.797,143.25,68.307z"/>
			<path d="M458.667,268.964c-5.896,0-10.667,4.771-10.667,10.667v110.594l-78.167,37.229c-5.313,2.542-7.583,8.906-5.042,14.219
				c1.813,3.844,5.646,6.083,9.625,6.083c1.542,0,3.104-0.333,4.583-1.031l84.25-40.125c3.708-1.771,6.083-5.521,6.083-9.635V279.63
				C469.333,273.734,464.563,268.964,458.667,268.964z"/>
			<path d="M101.896,428.589l-80.563-38.365V279.63c0-5.896-4.771-10.667-10.667-10.667S0,273.734,0,279.63v117.333
				c0,4.115,2.375,7.865,6.083,9.635l86.646,41.26c1.479,0.698,3.042,1.031,4.583,1.031c3.979,0,7.813-2.24,9.625-6.083
				C109.479,437.495,107.208,431.13,101.896,428.589z"/>
			<path d="M365.313,384.884c-1.495,2.868-1.836,6.293-0.333,9.434c1.813,3.844,5.646,6.083,9.625,6.083
				c1.542,0,3.104-0.333,4.583-1.031l41.396-19.708c3.708-1.771,6.083-5.521,6.083-9.635v-48.542
				c0-5.896-4.771-10.667-10.667-10.667c-3.711,0-6.818,2.008-8.728,4.879l-65.939-27.379v-59.583l65.991-27.78
				c1.918,2.828,4.999,4.801,8.676,4.801c5.896,0,10.667-4.771,10.667-10.667v-48.521c0-4.115-2.375-7.865-6.083-9.635
				l-41.521-19.771c-5.313-2.521-11.688-0.281-14.208,5.052c-1.523,3.185-1.151,6.659,0.402,9.55l-56.777,45.794L267.5,155.891
				l8.089-64.37l2.745,1.307c1.479,0.698,3.042,1.031,4.583,1.031c3.979,0,7.813-2.24,9.625-6.083
				c2.542-5.323,0.271-11.688-5.042-14.219l-48.25-22.969c-2.917-1.375-6.25-1.375-9.167,0L182.25,73.359
				c-5.313,2.542-7.583,8.906-5.042,14.219c2.521,5.323,8.896,7.542,14.208,5.052l2.362-1.125l8.284,64.385l-44.688,23.531
				l-53.017-46.611c2.464-3.092,3.19-7.388,1.371-11.191c-2.521-5.344-8.938-7.552-14.208-5.052L48.75,136.932
				c-3.708,1.771-6.083,5.521-6.083,9.635v48.542c0,5.896,4.771,10.667,10.667,10.667c3.736,0,6.862-2.031,8.767-4.936l65.9,26.967
				v61.208l-65.914,26.78c-1.908-2.892-5.026-4.915-8.753-4.915c-5.896,0-10.667,4.771-10.667,10.667v48.479
				c0,4.115,2.375,7.865,6.083,9.625c0,0,47,21.979,48.542,21.979c3.979,0,7.792-2.24,9.625-6.083
				c1.913-3.999,1.092-8.587-1.691-11.695l55.525-44.846l40.854,21.688l-7.893,64.363l-2.294-1.092
				c-5.292-2.5-11.688-0.292-14.208,5.052c-2.542,5.313-0.271,11.677,5.042,14.219l47.833,22.771
				c1.458,0.688,3.021,1.031,4.583,1.031s3.146-0.344,4.583-1.042l47.021-22.396c5.313-2.531,7.583-8.896,5.042-14.208
				c-2.563-5.344-8.938-7.573-14.208-5.052l-1.483,0.707l-7.892-64.353l40.854-21.688L365.313,384.884z"/>
		</g>
	</g>
</g>
<g>
</g>
<g>
</g>
<g>
</g>
<g>
</g>
<g>
</g>
<g>
</g>
<g>
</g>
<g>
</g>
<g>
</g>
<g>
</g>
<g>
</g>
<g>
</g>
<g>
</g>
<g>
</g>
<g>
</g>
</svg>
